<svg viewBox="0 0 431 60" fill="none" xmlns="http://www.w3.org/2000/svg"><path fill-rule="evenodd" clip-rule="evenodd" d="M0 0H60V36H0V0ZM12 24H48V12H12V24Z" fill="black"></path><path d="M60 48H0V60H60V48Z" fill="black"></path><path d="M84 30.071C84 26.4738 84.7336 23.279 86.2009 20.4864C87.7155 17.6939 89.7981 15.5403 92.4486 14.0257C95.1465 12.4638 98.1994 11.6828 101.607 11.6828C104.968 11.6828 107.926 12.4164 110.482 13.8837C113.038 15.351 115.026 17.4335 116.446 20.1314C117.866 22.8293 118.575 25.9532 118.575 29.503V32.6979H92.0226C92.1646 35.3958 93.1586 37.6203 95.0045 39.3716C96.8978 41.1228 99.2407 41.9985 102.033 41.9985C104.447 41.9985 106.364 41.4542 107.784 40.3655C109.251 39.2769 110.411 37.8333 111.263 36.0347L117.724 39.5136C116.304 42.0695 114.363 44.2467 111.902 46.0453C109.488 47.8439 106.151 48.7432 101.891 48.7432C98.3887 48.7432 95.2648 47.9622 92.5196 46.4003C89.8217 44.791 87.7155 42.5901 86.2009 39.7976C84.7336 36.9577 84 33.7155 84 30.071ZM110.624 26.6631C110.387 24.1546 109.464 22.1667 107.855 20.6994C106.246 19.1848 104.139 18.4275 101.536 18.4275C98.8857 18.4275 96.7321 19.1848 95.0755 20.6994C93.4189 22.1667 92.425 24.1546 92.0936 26.6631H110.624Z" fill="black"></path><path d="M151.3 42.7794H150.59C147.986 46.7553 143.987 48.7432 138.591 48.7432C135.704 48.7432 133.03 47.9859 130.568 46.4713C128.155 44.9567 126.214 42.8031 124.747 40.0106C123.279 37.1707 122.546 33.9048 122.546 30.213C122.546 26.5212 123.279 23.279 124.747 20.4864C126.214 17.6939 128.155 15.5403 130.568 14.0257C133.03 12.5111 135.704 11.7538 138.591 11.7538C143.987 11.7538 148.034 13.789 150.732 17.8595H151.442V12.7478H159.109V60H151.3V42.7794ZM140.863 41.9985C143.987 41.9985 146.519 40.9572 148.46 38.8746C150.448 36.7447 151.442 33.8575 151.442 30.213C151.442 26.5685 150.448 23.7049 148.46 21.6224C146.519 19.4925 143.987 18.4275 140.863 18.4275C137.739 18.4275 135.207 19.4925 133.266 21.6224C131.326 23.7049 130.355 26.5685 130.355 30.213C130.355 33.8575 131.326 36.7447 133.266 38.8746C135.207 40.9572 137.739 41.9985 140.863 41.9985Z" fill="black"></path><path d="M191.067 42.2825H190.357C188.369 46.3056 184.582 48.3172 178.997 48.3172C176.347 48.3172 173.98 47.7256 171.897 46.5423C169.815 45.3117 168.182 43.6077 166.999 41.4305C165.863 39.2059 165.295 36.65 165.295 33.7628V12.7478H173.104V33.3369C173.104 36.1767 173.814 38.3303 175.234 39.7976C176.654 41.2175 178.689 41.9275 181.34 41.9275C184.275 41.9275 186.594 40.9572 188.298 39.0166C190.049 37.0287 190.925 34.2598 190.925 30.71V12.7478H198.663V47.7492H191.067V42.2825Z" fill="black"></path><path d="M214.478 47.7492H206.739V12.7478H214.478V47.7492Z" fill="black"></path><path d="M230.338 47.7492H222.6V0H230.338V47.7492Z" fill="black"></path><path d="M246.199 47.7492H238.46V12.7478H246.199V47.7492Z" fill="black"></path><path d="M262.06 17.6465H262.77C265.373 13.7181 269.372 11.7538 274.768 11.7538C277.655 11.7538 280.306 12.5111 282.72 14.0257C285.181 15.5403 287.145 17.6939 288.612 20.4864C290.08 23.279 290.813 26.5212 290.813 30.213C290.813 33.9048 290.08 37.1707 288.612 40.0106C287.145 42.8031 285.181 44.9567 282.72 46.4713C280.306 47.9859 277.655 48.7432 274.768 48.7432C269.372 48.7432 265.325 46.6843 262.628 42.5664H261.918V47.7492H254.321V0H262.06V17.6465ZM272.496 18.4275C269.42 18.4275 266.887 19.4925 264.899 21.6224C262.959 23.7523 261.989 26.6158 261.989 30.213C261.989 33.8102 262.959 36.6737 264.899 38.8036C266.887 40.9335 269.42 41.9985 272.496 41.9985C275.62 41.9985 278.152 40.9572 280.093 38.8746C282.033 36.7447 283.004 33.8575 283.004 30.213C283.004 26.5685 282.033 23.7049 280.093 21.6224C278.152 19.4925 275.62 18.4275 272.496 18.4275Z" fill="black"></path><path d="M305.043 17.5755C305.753 15.8243 306.818 14.57 308.237 13.8127C309.657 13.0081 311.527 12.6058 313.846 12.6058H317.893V19.2085H312.497C310.036 19.2085 308.072 19.8711 306.605 21.1964C305.185 22.5217 304.475 24.4622 304.475 27.0181V47.7492H296.736V12.7478H304.333V17.5755H305.043Z" fill="black"></path><path d="M330.111 47.7492H322.373V12.7478H330.111V47.7492Z" fill="black"></path><path d="M364.005 42.2825H363.295C361.307 46.3056 357.521 48.3172 351.935 48.3172C349.285 48.3172 346.918 47.7256 344.836 46.5423C342.753 45.3117 341.12 43.6077 339.937 41.4305C338.801 39.2059 338.233 36.65 338.233 33.7628V12.7478H346.043V33.3369C346.043 36.1767 346.753 38.3303 348.173 39.7976C349.593 41.2175 351.628 41.9275 354.278 41.9275C357.213 41.9275 359.532 40.9572 361.236 39.0166C362.987 37.0287 363.863 34.2598 363.863 30.71V12.7478H371.602V47.7492H364.005V42.2825Z" fill="black"></path><path d="M387.274 17.1496H387.984C389.735 13.789 392.907 12.1088 397.498 12.1088C402.278 12.1088 405.568 14.0494 407.366 17.9305H408.076C409.07 16.0846 410.372 14.6647 411.981 13.6707C413.59 12.6294 415.72 12.1088 418.371 12.1088C421.826 12.1088 424.642 13.1974 426.819 15.3746C429.044 17.5045 430.156 20.5338 430.156 24.4622V47.7492H422.347V24.8882C422.347 22.853 421.779 21.2911 420.643 20.2024C419.507 19.0665 417.945 18.4985 415.957 18.4985C413.732 18.4985 411.981 19.2085 410.703 20.6284C409.425 22.0483 408.786 24.0836 408.786 26.7341V47.7492H400.977V24.8882C400.977 22.853 400.409 21.2911 399.273 20.2024C398.184 19.0665 396.622 18.4985 394.587 18.4985C392.362 18.4985 390.611 19.2085 389.333 20.6284C388.055 22.0483 387.416 24.0836 387.416 26.7341V47.7492H379.678V12.7478H387.274V17.1496Z" fill="black"></path><path d="M206.831 0.13146H214.481V6.97814H206.831V0.13146Z" fill="black"></path><path d="M238.368 0.13146H246.019V6.97814H238.368V0.13146Z" fill="black"></path><path d="M322.467 0.13146H330.118V6.97814H322.467V0.13146Z" fill="black"></path></svg>
